<?xml version="1.0" encoding="utf-8"?>
<!-- Generator: Adobe Illustrator 24.3.0, SVG Export Plug-In . SVG Version: 6.00 Build 0)  -->
<svg version="1.1" id="Layer_1" xmlns="http://www.w3.org/2000/svg" xmlns:xlink="http://www.w3.org/1999/xlink" x="0px" y="0px"
	 viewBox="0 0 309.6 148.1" style="enable-background:new 0 0 309.6 148.1;" xml:space="preserve">
<style type="text/css">
	.st0{fill:#FFFFFF;}
</style>
<g id="Layer_2_1_">
	<g id="Layer_1-2">
		<g id="Group_9">
			<g id="Courant">
				<g>
					<path class="st0" d="M101.8,67.4c-6.6,14.7-20,27.3-34.7,35.4c-9.7,5.3-20.5,8.4-31.6,9c-1.3,2.8-2.4,5.7-3.4,8.6
						c-2.9,9-3.8,23,8.5,25.9c15.9,4,32.4-9.9,41.6-22.1c0.2-0.2,0.5-0.2,0.7,0s0.2,0.5,0,0.7c0,0,0,0,0,0
						c-6.1,7.7-13.1,14.9-22,19.4c-4.8,2.5-10.1,3.9-15.5,3.9c-4.2,0-9.4-1.6-12.6-4.4c-4-3.6-5.5-9.4-5.7-14.7
						c-0.2-5.8,0.7-11.5,2.5-17c-9.6-0.5-20.1-3.4-25.7-11.6c-3.2-4.5-4.4-10.1-3.4-15.5c0.9-5.3,3.9-10,7.7-13.8
						c3.9-3.8,8.7-6.5,14-7.9c4.9-1,11.2-0.8,14.6,3.4c4,5.1,0.7,12-3.2,16.5c-2.5,2.9-5.9,5.5-9,5.3c-2.3-0.1-3.1-2.1-2.5-3.9
						s2.7-3.4,4.7-3.1c-0.4,0.3-1.4,1.8-0.8,2.5c0.9,0.9,4.3,1,6.9-1.7c3.4-3.8,6.5-10,3.4-14.7c-1.6-2-3.9-3.3-6.5-3.5
						c-5.3-0.7-10.4,1.8-14.6,5.2c-8.3,6.8-14.8,18.3-10.1,29c4.2,9.4,15.3,12.1,25,12.5C33.2,100.3,39.2,91,46,82.5
						c7-8.9,15.4-16.6,24.7-23c4.6-3.4,9.8-6,15.2-7.8c4.9-1.7,12-2.1,15.5,1.2C105.5,56.8,103.7,63,101.8,67.4z M99.9,54.3
						c-4.4-3.2-10.7-1-15.1,1.2c-5,2.5-9.5,5.6-13.7,9.4c-8.7,7.4-16.3,15.9-22.9,25.2c-4.7,6.5-8.8,13.3-12.3,20.5
						c21.7-1.3,41.7-13,55.7-29.5c3.7-4.3,6.7-9.1,9-14.2C102,63.3,103.7,57.3,99.9,54.3z"/>
					<path class="st0" d="M115,124.8c-2.6,3.2-7,7.3-11.2,8.1c-2.3,5-5.9,9.2-10.4,12.4c-3.6,2.5-9.9,4.7-13.5,0.9s-3-11.2-0.9-15.7
						c3.3-7.4,10.5-13.4,18.6-14.2c2.3-0.3,5.1,0,6.9,1.8c1.4,1.6,1.8,3.8,1.2,5.8c-0.1,0.4-0.7,0.1-0.7-0.3
						c0.4-1.7-0.1-3.5-1.3-4.8c-3.9-3.4-10.7,1.7-13.7,4.9c-3.6,4.2-6.5,9-8.4,14.2c-0.9,2.3-1.8,5.3-0.4,7.5s4.3,2.1,6.4,1.2
						c4.4-2.2,9.4-10.1,12.1-14.4c-1-0.5-1.7-1.3-2-2.3c-0.7-2.3,1-4.9,3-6c1.6-0.9,3.2-0.7,4,1c0.9,2.2,0.3,4.7-0.5,6.9
						c3.6-1,7.9-4.7,10.1-7.7c0.2-0.2,0.5-0.2,0.7,0C115.2,124.3,115.2,124.6,115,124.8L115,124.8z M100.2,131.5
						c0.3-0.4,4.3-8.1,0.9-6.8c-1.9,0.8-3,2.9-2.5,4.9C98.9,130.5,99.5,131.1,100.2,131.5L100.2,131.5z"/>
					<path class="st0" d="M123.2,116.2c1.6,0.4,2.7,2,2.1,3.4c-0.7,1.4-1.4,2.7-2.3,4c-3.6,6.2-8.6,12-10.7,19c-0.5,1.1,0,2.5,1.1,3
						c0.1,0.1,0.3,0.1,0.5,0.2c3.8,0.6,7.5-3.2,9.9-6c2.8-3.1,5.4-6.5,7.7-10c2-3.4,4.3-7.2,6.4-10.5c0.8-1.4,2-3,3.5-3
						c1.4,0,2.6,1.2,2.6,2.6c0,0.5-0.1,0.9-0.4,1.3c-3.2,6.2-7.7,12-11.2,18.1c-0.6,1.3-4.8,7.4-1,7.3c1.6,0,3.1-1.3,4.4-2.5
						c5.7-6,11.2-12.3,16.2-18.8c0.2-0.2,0.5-0.2,0.6,0c0.2,0.2,0.2,0.4,0,0.6c-3.9,4.9-11.4,14.2-16.6,19.5
						c-2.1,1.8-4.2,3.5-7.1,3.8c-6.1-0.5-2.2-9.2-0.6-12.2c-1.3,1.8-2.8,3.6-4.3,5.2c-2.9,3.2-7.2,7.4-12,7
						c-5.8-0.4-3.9-7.4-2.6-10.9c1.8-4.2,3.9-8.2,6.2-12.1c-0.1-0.1-0.3-0.4,0.1-0.9c1.5-2,2.9-4.1,4.2-6.2
						C120.5,116.6,121.8,116,123.2,116.2z"/>
					<path class="st0" d="M181.1,124.8c-4.7,5.7-12.4,16-18.7,21.1c-1.7,1.3-4,2.9-6.1,2.1c-4.9-1.4-1.2-10.8,0.3-13.6
						c2-4.1,4.4-7.9,7.1-11.4c-2.5-0.5-4.9-0.7-7.1-2c-0.8,1.4-1.6,2.7-2.6,3.9c-0.5,0.7-1.3,0.3-0.6-0.7s1.6-2.2,2.5-3.6
						c-1.2-1-1.7-2.6-1.3-4.2c0.2-1.1,0.7-2.1,1.4-2.9c0.8-0.8,2.1-1,2.6,0.1c0.8,2-0.4,4.4-1.4,6.4c2.8,0.8,5.7,0.6,8.4-0.4
						c0.9-0.5,2-0.8,3-1c0.9,0,1.8,0.5,2.3,1.3c0.5,0.9,0.4,2-0.3,2.9c-0.9,1-1.7,2.2-2.5,3.2c-3.6,4.9-7,9.9-10,15.2
						c-0.6,1-2.3,4.6-1,5.2s3.1-0.5,4.3-1.3c6.6-4.7,14.6-15.1,19.1-20.9c0.2-0.1,0.5,0,0.6,0.2
						C181.1,124.5,181.1,124.6,181.1,124.8z M157.5,113.8c-0.8-0.7-2,1.4-2.1,1.8c-0.7,1.4-0.3,3,0.8,4
						C156.9,118.5,158.8,115,157.5,113.8L157.5,113.8z"/>
					<path class="st0" d="M218.8,124.1c0.2-0.2,0.5-0.2,0.6,0c0.2,0.2,0.2,0.4,0,0.6c-3.9,4.9-11.4,14.2-16.6,19.5
						c-2.6,2.5-5.7,4.8-8.6,3.2c-3.1-1.8-1.7-6.1-0.4-9.2c-2.6,3.5-5.7,7.3-9.9,9c-2.2,0.9-4.9,1.2-7-0.4c-2.2-1.8-2.7-4.9-2.6-7.7
						c0.3-5.1,3-10.5,6.2-14.4c3.5-4,8.3-7.5,13.6-8.4c2.5-0.4,5.5,0,6.8,2.3c0.8,1.8,0.9,3.8,0.4,5.7c1.2-2,2.3-3.8,3.5-5.6
						c0.8-1.3,2.5-1.7,3.8-0.9c0,0,0,0,0,0c1.6,1,1.3,2.9,0.5,4.3c-2.1,3.4-4.3,6.9-6.4,10.3c-2.1,3-3.9,6.1-5.6,9.4
						c-1.7,3.9,1.2,4.7,5.3,1.2C208.3,137,213.7,130.7,218.8,124.1z M194.8,135.3c1.7-2.7,4.8-7.7,5.7-10.7c0.6-2.7,0-6.8-3.5-6.8
						c-2.7,0-5.2,1.8-7,3.5c-5.1,4.4-10.4,12.4-11.7,19.8c-0.3,2,0,4.3,2.3,4.8c1.3,0.2,2.7,0.1,3.9-0.4
						C189,143.8,192.4,139.2,194.8,135.3z"/>
					<path class="st0" d="M244.5,143.1c5.6-5.7,11.2-12.6,16.2-19c0.4-0.5,1,0.3,0.6,0.7c-2.7,3.5-5.7,7.2-8.6,10.5
						c-3.4,3.8-7.1,8.8-10.8,11.3c-1.6,1.3-3.7,1.7-5.7,1.2c-1.4-0.7-2.3-2.1-2.3-3.6c0.1-6.9,7.8-16.2,11.4-24.3
						c0.4-0.9-0.1-1.6-1.2-1.8c-2.7-0.7-6.2,2.6-8.3,4.7c-3.3,3.3-6.2,6.9-8.7,10.8c-2.5,4.4-5.1,8.3-7.8,12.6
						c-0.9,1.4-2.3,2.5-4,1.6c-0.9-0.5-1.5-1.4-1.6-2.5c0-0.9,0.5-1.4,0.9-2.2c3.2-5.2,6.5-10.4,9.9-15.6c0.3-0.4,5.9-8.7,3.2-8.7
						c-1.3,0-2.7,1.3-3.5,2.1c-1.3,1.2-2.5,2.6-3.6,4c-0.6,0.8-1.6,0.5-0.6-0.7c1.3-1.6,2.1-2.6,4.3-4.9s6-4.4,7.8-1.7
						c1.3,2.1,0.1,5.3-1.8,10.1c1.6-2.1,3.4-4.1,5.2-6c1.8-1.7,3.7-3.2,5.9-4.4c4.7-2.6,9.4-0.4,7.8,5.5c-2.6,7.5-12,20.4-10.8,22.1
						S243.1,144.5,244.5,143.1z"/>
					<path class="st0" d="M309,91c-7.3,3.8-16.2,2.1-24,2.2c-8.3,13.4-15.9,27.3-22.6,41.6c-0.4,0.9-5.3,12.1-1.3,10.3
						c1.4-0.8,2.7-1.7,3.8-2.9c5.5-5.8,10.8-11.8,15.7-18.1c0.4-0.5,1,0.3,0.6,0.7c-4.5,5.6-9.2,11.3-14,16.5
						c-1.7,2-3.7,3.9-5.7,5.6c-0.8,0.6-3.1,1.7-4.7,0.9c-2.1-1-1.9-3.9-1.7-5.9c0.8-5.2,3.1-10.3,5.3-15.1
						c5.5-11.6,11.7-22.9,18.6-33.8c-4.5-0.2-9.1,0.1-13.5,0.8c-0.2,0.1-0.4,0-0.5-0.2c-0.1-0.2,0-0.4,0.2-0.5
						c4.8-1.4,9.8-2.1,14.8-2c5.7-9.5,11.7-18.9,17.7-28.1c1.3-1.8,4.7-0.4,3.9,1.7c-0.3,0.7-1.2,2.2-1.7,3.1
						c-4.8,7.7-9.4,15.6-13.9,23.4c3.8,0.1,7.4,0.4,11,0.5c3.9,0,7.9,0,11.6-1.4C309.6,89.9,310,90.3,309,91z"/>
				</g>
			</g>
			<g id="the">
				<g>
					<path class="st0" d="M55,11.5c-2.9,1.5-6.4,0.8-9.4,0.9c-3.3,5.3-6.2,10.7-8.9,16.3c-0.2,0.4-2.1,4.7-0.5,4
						c0.5-0.3,1-0.7,1.5-1.1c2.2-2.3,4.2-4.6,6.2-7.1c0.2-0.2,0.4,0.1,0.2,0.3c-1.8,2.2-3.6,4.4-5.5,6.5c-0.7,0.8-1.4,1.5-2.2,2.2
						c-0.5,0.4-1.2,0.5-1.8,0.4c-0.8-0.4-0.8-1.5-0.7-2.3c0.4-2,1.1-4,2.1-5.9c2.2-4.6,4.6-9,7.3-13.3c-1.8-0.1-3.6,0-5.3,0.3
						c-0.2,0-0.2-0.1-0.1-0.3c1.9-0.6,3.8-0.8,5.8-0.8c2.2-3.7,4.6-7.4,6.9-11c0.5-0.7,1.8-0.2,1.5,0.7c-0.1,0.2-0.5,0.9-0.7,1.2
						c-1.9,3-3.7,6.1-5.5,9.2c1.5,0.1,2.9,0.1,4.3,0.2c1.5,0.1,3.1-0.1,4.5-0.6C55.2,11.1,55.4,11.3,55,11.5z"/>
					<path class="st0" d="M60.3,7.9c-3.5,5.7-9.1,11.9-14.1,16.7c-0.5,1-1.1,2-1.6,3.1c1-1.2,2.3-2.5,3.5-3.6c0.8-0.8,1.7-1.4,2.7-2
						c0.8-0.4,1.9-1,2.8-0.5c1.4,1,0.6,3.2-0.1,4.3c-1,1.7-2.7,3.9-3.7,6c-0.6,1.1,0.5,1.3,1.5,0.4c2.6-2.4,5-5,7.1-7.8
						c0.1-0.1,0.2-0.1,0.3,0c0.1,0.1,0.1,0.2,0,0.3c-2.2,3-4.8,5.7-7.5,8.2c-0.8,0.6-1.9,1.4-2.8,0.6c-0.4-0.5-0.6-1.2-0.4-1.8
						c0.6-2.5,2.8-5.4,4.1-7.9c1.8-3.4-2.1-0.9-3.2,0c-1.9,1.7-3.6,3.6-5.2,5.7c-0.6,1.2-1.3,2.5-1.9,3.6c-0.8,1.4-2.2,0.6-1.7-0.5
						c3.4-7.7,7.3-15.3,11.6-22.6c2-3.1,3.8-6.5,6.6-8.9C59,0.5,60,0.1,61,0c1.1,0,1.5,0.9,1.5,1.8C62.5,4.1,61.5,6,60.3,7.9z
						 M62,1.3c-0.9-2.2-4.4,3-4.8,3.6c-2.3,3.7-4.3,7.5-6.5,11.3c-1.4,2.5-2.7,4.9-3.9,7.4c2.8-2.7,5.4-5.6,7.8-8.6
						c1.4-1.7,2.8-3.5,4-5.3C59.7,8.3,62.9,3.3,62,1.3z"/>
					<path class="st0" d="M70.2,24.8c-2.4,3-4.8,6.3-8.3,8.3c-1.4,0.8-3.3,1.3-4.6,0.2c-1.7-1.5-1.4-4.5-0.1-6.7
						c1.1-1.9,2.7-3.4,4.6-4.3c1-0.6,2.3-0.9,3.5-0.7c0.6,0.1,1.1,0.4,1.5,0.8c0.6,0.9,0.6,2-0.2,2.8c-1.3,1.5-3,2.6-4.9,3
						c-1,0.2-1.9,0.3-2.9,0.2c-0.6,1.4-1.7,4.2,0.5,4.8c1.6,0.2,3.2-0.9,4.4-1.8c1.4-1.2,2.8-2.6,4-4c0.6-0.7,1.1-1.3,1.6-2l0.6-0.7
						c0.1,0,0.2,0,0.2,0.1C70.3,24.7,70.3,24.7,70.2,24.8z M59,28c0.5,0,1.1,0,1.6-0.1c3.4-0.2,6.1-4.7,5.2-5.7
						c-0.2-0.2-0.5-0.3-0.8-0.3c-1,0.1-2,0.5-2.7,1.3C60.9,24.6,59.8,26.2,59,28z"/>
				</g>
			</g>
		</g>
	</g>
</g>
</svg>
