<svg xmlns="http://www.w3.org/2000/svg" viewBox="0 0 309.58 148.13"><defs><style>.cls-1{isolation:isolate;}</style></defs><g id="Layer_2" data-name="Layer 2"><g id="Layer_1-2" data-name="Layer 1"><g id="Group_9" data-name="Group 9"><g id="Courant" class="cls-1"><g class="cls-1"><path d="M101.76,67.44c-6.63,14.7-20,27.31-34.72,35.37a75.46,75.46,0,0,1-31.59,9,78.18,78.18,0,0,0-3.38,8.58c-2.86,9-3.77,23,8.45,25.87,15.86,4,32.38-9.88,41.61-22.1a.46.46,0,1,1,.65.65c-6.11,7.67-13.13,14.95-22,19.37a33.7,33.7,0,0,1-15.47,3.9c-4.16,0-9.36-1.56-12.61-4.42-4-3.64-5.46-9.36-5.72-14.69a50.55,50.55,0,0,1,2.47-17c-9.62-.52-20.15-3.38-25.74-11.57A20.55,20.55,0,0,1,.35,84.87c.91-5.33,3.9-10,7.67-13.79a31.68,31.68,0,0,1,14-7.93c4.94-1,11.18-.77,14.56,3.39,4,5.06.65,12-3.25,16.51-2.47,2.86-5.85,5.46-9,5.33-2.34-.13-3.12-2.08-2.47-3.9s2.73-3.38,4.68-3.12c-.39.26-1.43,1.82-.78,2.47.91.91,4.29,1,6.89-1.69,3.38-3.77,6.5-10,3.38-14.7a9.07,9.07,0,0,0-6.5-3.51c-5.33-.65-10.4,1.82-14.56,5.2C6.72,75.9.22,87.47,4.9,98.13c4.16,9.36,15.34,12.09,25,12.48C33.24,100.34,39.22,91,46,82.53a111.92,111.92,0,0,1,24.71-23,56.17,56.17,0,0,1,15.21-7.8c4.94-1.69,12-2.08,15.47,1.17C105.53,56.78,103.71,63,101.76,67.44ZM99.94,54.31c-4.42-3.25-10.66-1-15.08,1.17a60.62,60.62,0,0,0-13.65,9.36A135.88,135.88,0,0,0,48.32,90.07,136.42,136.42,0,0,0,36,110.61c21.71-1.3,41.74-13,55.65-29.51a59.3,59.3,0,0,0,9-14.18C102,63.28,103.71,57.3,99.94,54.31Z"/><path d="M115,124.78c-2.6,3.25-7,7.28-11.18,8.06a30.89,30.89,0,0,1-10.4,12.35c-3.64,2.47-9.88,4.68-13.52.91s-3-11.18-.91-15.73C82.25,123,89.53,117,97.59,116.2c2.34-.26,5.07,0,6.89,1.82a6.13,6.13,0,0,1,1.17,5.85c-.13.39-.65.13-.65-.26a5.18,5.18,0,0,0-1.3-4.81c-3.9-3.38-10.66,1.69-13.65,4.94a47.67,47.67,0,0,0-8.45,14.17c-.91,2.34-1.82,5.33-.39,7.54s4.29,2.08,6.37,1.17c4.42-2.21,9.36-10.14,12.09-14.43a3.87,3.87,0,0,1-2-2.34c-.65-2.34,1-4.94,3-6,1.56-.91,3.25-.65,4,1,.91,2.21.26,4.68-.52,6.89,3.64-1,7.93-4.68,10.14-7.67A.46.46,0,1,1,115,124.78Zm-14.82,6.76c.26-.39,4.29-8.06.91-6.76a4.23,4.23,0,0,0-2.47,4.94A3.66,3.66,0,0,0,100.19,131.54Z"/><path d="M123.2,116.2c1.56.39,2.73,2,2.08,3.38a25,25,0,0,1-2.34,4c-3.64,6.24-8.58,12-10.66,19a2.24,2.24,0,0,0,1.56,3.12c3.77.65,7.54-3.25,9.88-6a84.81,84.81,0,0,0,7.67-10c2-3.38,4.29-7.15,6.37-10.53.78-1.43,2-3,3.51-3a2.59,2.59,0,0,1,2.21,3.9c-3.25,6.24-7.67,12-11.18,18.07-.65,1.3-4.81,7.41-1,7.28,1.56,0,3.12-1.3,4.42-2.47a236.7,236.7,0,0,0,16.25-18.85.46.46,0,0,1,.65.65c-3.9,4.94-11.44,14.17-16.64,19.5-2.08,1.82-4.16,3.51-7.15,3.77-6.11-.52-2.21-9.23-.65-12.22a53.52,53.52,0,0,1-4.29,5.2c-2.86,3.25-7.15,7.41-12,7-5.85-.39-3.9-7.41-2.6-10.92A88.67,88.67,0,0,1,115.53,125c-.13-.13-.26-.39.13-.91a74,74,0,0,0,4.16-6.24A3.23,3.23,0,0,1,123.2,116.2Z"/><path d="M181.05,124.78c-4.68,5.72-12.35,16-18.72,21.06-1.69,1.3-4,2.86-6.11,2.08-4.94-1.43-1.17-10.79.26-13.65a64.92,64.92,0,0,1,7.15-11.44c-2.47-.52-4.94-.65-7.15-2a33.35,33.35,0,0,1-2.6,3.9c-.52.65-1.3.26-.65-.65s1.56-2.21,2.47-3.64a4.08,4.08,0,0,1-1.3-4.16,5.94,5.94,0,0,1,1.43-2.86c.78-.78,2.08-1,2.6.13.78,2-.39,4.42-1.43,6.37a13.42,13.42,0,0,0,8.45-.39,11.64,11.64,0,0,1,3-1,2.9,2.9,0,0,1,2.34,1.3,2.56,2.56,0,0,1-.26,2.86c-.91,1-1.69,2.21-2.47,3.25a146.06,146.06,0,0,0-10,15.21c-.65,1-2.34,4.55-1,5.2s3.12-.52,4.29-1.3c6.63-4.68,14.56-15.08,19.11-20.93A.46.46,0,0,1,181.05,124.78Zm-23.53-11c-.78-.65-2,1.43-2.08,1.82a3.4,3.4,0,0,0,.78,4C156.87,118.54,158.82,115,157.52,113.73Z"/><path d="M218.75,124.13a.46.46,0,0,1,.65.65c-3.9,4.94-11.44,14.17-16.64,19.5-2.6,2.47-5.72,4.81-8.58,3.25-3.12-1.82-1.69-6.11-.39-9.23-2.6,3.51-5.72,7.28-9.88,9-2.21.91-4.94,1.17-7-.39-2.21-1.82-2.73-4.94-2.6-7.67.26-5.07,3-10.53,6.24-14.43,3.51-4,8.32-7.54,13.65-8.45,2.47-.39,5.46,0,6.76,2.34a8.64,8.64,0,0,1,.39,5.72c1.17-2,2.34-3.77,3.51-5.59a2.74,2.74,0,0,1,3.77-.91c1.56,1,1.3,2.86.52,4.29-2.08,3.38-4.29,6.89-6.37,10.27a89,89,0,0,0-5.59,9.36c-1.69,3.9,1.17,4.68,5.33,1.17A236.7,236.7,0,0,0,218.75,124.13Zm-23.92,11.18c1.69-2.73,4.81-7.67,5.72-10.66.65-2.73,0-6.76-3.51-6.76-2.73,0-5.2,1.82-7,3.51-5.07,4.42-10.4,12.35-11.7,19.76-.26,2,0,4.29,2.34,4.81a7.88,7.88,0,0,0,3.9-.39C189,143.76,192.36,139.21,194.83,135.31Z"/><path d="M244.49,143.11c5.59-5.72,11.18-12.61,16.25-19,.39-.52,1,.26.65.65-2.73,3.51-5.72,7.15-8.58,10.53-3.38,3.77-7.15,8.84-10.79,11.31a6.61,6.61,0,0,1-5.72,1.17,4,4,0,0,1-2.34-3.64c.13-6.89,7.8-16.25,11.44-24.31.39-.91-.13-1.56-1.17-1.82-2.73-.65-6.24,2.6-8.32,4.68a70.29,70.29,0,0,0-8.71,10.79c-2.47,4.42-5.07,8.32-7.8,12.61-.91,1.43-2.34,2.47-4,1.56a2.91,2.91,0,0,1-1.56-2.47c0-.91.52-1.43.91-2.21,3.25-5.2,6.5-10.4,9.88-15.6.26-.39,5.85-8.71,3.25-8.71-1.3,0-2.73,1.3-3.51,2.08a38.88,38.88,0,0,0-3.64,4c-.65.78-1.56.52-.65-.65,1.3-1.56,2.08-2.6,4.29-4.94s6-4.42,7.8-1.69c1.3,2.08.13,5.33-1.82,10.14a74.41,74.41,0,0,1,5.2-6,28.8,28.8,0,0,1,5.85-4.42c4.68-2.6,9.36-.39,7.8,5.46-2.6,7.54-12,20.41-10.79,22.1S243.06,144.54,244.49,143.11Z"/><path d="M309,91c-7.28,3.77-16.25,2.08-24.05,2.21a419.22,419.22,0,0,0-22.62,41.6c-.39.91-5.33,12.09-1.3,10.27a16,16,0,0,0,3.77-2.86,233.75,233.75,0,0,0,15.73-18.07c.39-.52,1,.26.65.65-4.55,5.59-9.23,11.31-14,16.51a46.77,46.77,0,0,1-5.72,5.59c-.78.65-3.12,1.69-4.68.91-2.08-1-1.95-3.9-1.69-5.85.78-5.2,3.12-10.27,5.33-15.08a330.16,330.16,0,0,1,18.59-33.8,67.46,67.46,0,0,0-13.52.78.35.35,0,0,1-.26-.65,47.92,47.92,0,0,1,14.82-2c5.72-9.49,11.7-18.86,17.68-28.09,1.3-1.82,4.68-.39,3.9,1.69-.26.66-1.17,2.21-1.69,3.12-4.81,7.67-9.36,15.61-13.91,23.41,3.77.13,7.41.39,11.05.52,3.9,0,7.93,0,11.57-1.43C309.62,89.94,310,90.33,309,91Z"/></g></g><g id="the" class="cls-1"><g class="cls-1"><path d="M55,11.53c-2.86,1.47-6.38.81-9.44.86a165.46,165.46,0,0,0-8.87,16.32c-.15.36-2.09,4.74-.51,4a6.15,6.15,0,0,0,1.48-1.12,91.63,91.63,0,0,0,6.17-7.09c.15-.2.41.1.25.26-1.78,2.19-3.62,4.43-5.5,6.47a18,18,0,0,1-2.25,2.19,2,2,0,0,1-1.83.36c-.82-.41-.77-1.53-.67-2.29A23.21,23.21,0,0,1,35.9,25.6a130.21,130.21,0,0,1,7.3-13.26,26.31,26.31,0,0,0-5.31.31c-.15,0-.25-.15-.1-.26a18.87,18.87,0,0,1,5.81-.76c2.25-3.72,4.59-7.4,6.94-11,.51-.71,1.84-.15,1.53.67-.1.25-.46.86-.66,1.22-1.89,3-3.67,6.12-5.46,9.18,1.48.05,2.91.15,4.34.2a12.33,12.33,0,0,0,4.53-.56C55.23,11.12,55.38,11.27,55,11.53Z"/><path d="M60.33,7.91c-3.52,5.71-9.08,11.88-14.12,16.67-.51,1-1.07,2-1.58,3.11,1-1.17,2.34-2.55,3.46-3.62a12.94,12.94,0,0,1,2.65-2c.77-.41,1.89-1,2.76-.46,1.43,1,.56,3.17-.1,4.34-1,1.73-2.66,3.87-3.68,6-.56,1.13.46,1.28,1.53.41a53.48,53.48,0,0,0,7.09-7.8.18.18,0,0,1,.26.26A55.38,55.38,0,0,1,51.05,33c-.76.56-1.94,1.37-2.75.56a2,2,0,0,1-.41-1.79c.56-2.55,2.75-5.4,4.08-7.9,1.78-3.37-2.14-.92-3.16,0a38.48,38.48,0,0,0-5.15,5.66c-.56,1.17-1.28,2.45-1.94,3.62-.82,1.43-2.19.56-1.68-.51A223.56,223.56,0,0,1,51.61,10.05c2-3.11,3.78-6.53,6.63-8.88A5.48,5.48,0,0,1,61.05,0c1.12,0,1.53.92,1.53,1.84C62.52,4.08,61.45,6,60.33,7.91ZM62,1.28c-.91-2.15-4.43,3-4.79,3.57-2.29,3.67-4.33,7.49-6.53,11.27C49.32,18.61,48,21,46.77,23.56A95.79,95.79,0,0,0,54.62,15c1.43-1.68,2.75-3.46,4-5.3C59.67,8.26,62.88,3.32,62,1.28Z"/><path d="M70.23,24.79c-2.45,3.05-4.85,6.32-8.32,8.31-1.37.76-3.26,1.32-4.59.15-1.73-1.53-1.37-4.54-.1-6.73a11.35,11.35,0,0,1,4.59-4.34,5.59,5.59,0,0,1,3.47-.71,2.66,2.66,0,0,1,1.53.82,2.24,2.24,0,0,1-.15,2.8,9,9,0,0,1-4.9,3,11.08,11.08,0,0,1-2.91.25c-.56,1.43-1.73,4.19.51,4.75,1.64.25,3.22-.87,4.44-1.84a36.48,36.48,0,0,0,4-4c.56-.66,1.07-1.32,1.63-2l.56-.71A.18.18,0,0,1,70.23,24.79ZM59,28a12.5,12.5,0,0,0,1.58-.11c3.41-.25,6.12-4.69,5.15-5.71a1.22,1.22,0,0,0-.82-.3,4,4,0,0,0-2.7,1.32A17.69,17.69,0,0,0,59,28Z"/></g></g></g></g></g></svg>